<mxfile host="app.diagrams.net" modified="2020-10-27T11:14:51.229Z" agent="5.0 (Windows NT 10.0; Win64; x64) AppleWebKit/537.36 (KHTML, like Gecko) Chrome/86.0.4240.111 Safari/537.36" etag="QTDQkeX8Z5wIsDVo9ZuZ" version="13.8.3" type="github">
  <diagram id="8iWY7i1eRtHJk0hEjWrJ" name="Page-1">
    <mxGraphModel dx="1038" dy="523" grid="1" gridSize="10" guides="1" tooltips="1" connect="1" arrows="1" fold="1" page="1" pageScale="1" pageWidth="850" pageHeight="1100" math="0" shadow="0">
      <root>
        <mxCell id="0" />
        <mxCell id="1" parent="0" />
        <mxCell id="kXGQncrLINFczimPs-n6-14" value="" style="ellipse;whiteSpace=wrap;html=1;aspect=fixed;fillColor=#f8cecc;strokeColor=#b85450;" parent="1" vertex="1">
          <mxGeometry x="205" y="600" width="30" height="30" as="geometry" />
        </mxCell>
        <mxCell id="kXGQncrLINFczimPs-n6-1" value="" style="ellipse;whiteSpace=wrap;html=1;aspect=fixed;fillColor=#d5e8d4;strokeColor=#82b366;" parent="1" vertex="1">
          <mxGeometry x="205" y="50" width="30" height="30" as="geometry" />
        </mxCell>
        <mxCell id="kXGQncrLINFczimPs-n6-2" value="&lt;b&gt;&lt;font style=&quot;font-size: 17px&quot;&gt;&lt;u&gt;User Management&lt;/u&gt;&lt;/font&gt;&lt;/b&gt;" style="text;html=1;align=center;verticalAlign=middle;resizable=0;points=[];autosize=1;" parent="1" vertex="1">
          <mxGeometry x="140" y="20" width="160" height="20" as="geometry" />
        </mxCell>
        <mxCell id="kXGQncrLINFczimPs-n6-3" value="" style="endArrow=classic;html=1;strokeColor=#001933;exitX=0.5;exitY=1;exitDx=0;exitDy=0;" parent="1" source="kXGQncrLINFczimPs-n6-16" edge="1">
          <mxGeometry width="50" height="50" relative="1" as="geometry">
            <mxPoint x="150" y="160" as="sourcePoint" />
            <mxPoint x="220" y="200" as="targetPoint" />
          </mxGeometry>
        </mxCell>
        <mxCell id="kXGQncrLINFczimPs-n6-4" value="Go to Add User" style="rounded=0;whiteSpace=wrap;html=1;fillColor=#b0e3e6;strokeColor=#B0E3E6;" parent="1" vertex="1">
          <mxGeometry x="170" y="200" width="100" height="40" as="geometry" />
        </mxCell>
        <mxCell id="kXGQncrLINFczimPs-n6-5" value="Input User Information" style="rounded=0;whiteSpace=wrap;html=1;fillColor=#b0e3e6;strokeColor=#B0E3E6;" parent="1" vertex="1">
          <mxGeometry x="170" y="280" width="100" height="40" as="geometry" />
        </mxCell>
        <mxCell id="kXGQncrLINFczimPs-n6-6" value="" style="endArrow=classic;html=1;exitX=0.5;exitY=1;exitDx=0;exitDy=0;entryX=0.5;entryY=0;entryDx=0;entryDy=0;strokeColor=#001933;" parent="1" source="kXGQncrLINFczimPs-n6-4" target="kXGQncrLINFczimPs-n6-5" edge="1">
          <mxGeometry width="50" height="50" relative="1" as="geometry">
            <mxPoint x="400" y="290" as="sourcePoint" />
            <mxPoint x="450" y="240" as="targetPoint" />
          </mxGeometry>
        </mxCell>
        <mxCell id="kXGQncrLINFczimPs-n6-7" value="Assign User role" style="rounded=0;whiteSpace=wrap;html=1;fillColor=#b0e3e6;strokeColor=#B0E3E6;" parent="1" vertex="1">
          <mxGeometry x="170" y="360" width="100" height="40" as="geometry" />
        </mxCell>
        <mxCell id="kXGQncrLINFczimPs-n6-8" value="&lt;span&gt;Click Add User&lt;/span&gt;" style="rounded=0;whiteSpace=wrap;html=1;fillColor=#b0e3e6;strokeColor=#B0E3E6;" parent="1" vertex="1">
          <mxGeometry x="170" y="440" width="100" height="40" as="geometry" />
        </mxCell>
        <mxCell id="kXGQncrLINFczimPs-n6-9" value="" style="endArrow=classic;html=1;exitX=0.5;exitY=1;exitDx=0;exitDy=0;entryX=0.5;entryY=0;entryDx=0;entryDy=0;strokeColor=#001933;" parent="1" source="kXGQncrLINFczimPs-n6-5" target="kXGQncrLINFczimPs-n6-7" edge="1">
          <mxGeometry width="50" height="50" relative="1" as="geometry">
            <mxPoint x="400" y="290" as="sourcePoint" />
            <mxPoint x="450" y="240" as="targetPoint" />
          </mxGeometry>
        </mxCell>
        <mxCell id="kXGQncrLINFczimPs-n6-10" value="" style="endArrow=classic;html=1;exitX=0.5;exitY=1;exitDx=0;exitDy=0;entryX=0.5;entryY=0;entryDx=0;entryDy=0;strokeColor=#001933;" parent="1" source="kXGQncrLINFczimPs-n6-7" target="kXGQncrLINFczimPs-n6-8" edge="1">
          <mxGeometry width="50" height="50" relative="1" as="geometry">
            <mxPoint x="400" y="290" as="sourcePoint" />
            <mxPoint x="450" y="240" as="targetPoint" />
          </mxGeometry>
        </mxCell>
        <mxCell id="kXGQncrLINFczimPs-n6-11" value="Display Users" style="rounded=0;whiteSpace=wrap;html=1;fillColor=#ffe6cc;strokeColor=#d79b00;" parent="1" vertex="1">
          <mxGeometry x="170" y="520" width="100" height="40" as="geometry" />
        </mxCell>
        <mxCell id="kXGQncrLINFczimPs-n6-12" value="" style="endArrow=classic;html=1;exitX=0.5;exitY=1;exitDx=0;exitDy=0;entryX=0.5;entryY=0;entryDx=0;entryDy=0;strokeColor=#001933;" parent="1" source="kXGQncrLINFczimPs-n6-8" target="kXGQncrLINFczimPs-n6-11" edge="1">
          <mxGeometry width="50" height="50" relative="1" as="geometry">
            <mxPoint x="400" y="410" as="sourcePoint" />
            <mxPoint x="450" y="360" as="targetPoint" />
          </mxGeometry>
        </mxCell>
        <mxCell id="kXGQncrLINFczimPs-n6-13" value="" style="ellipse;whiteSpace=wrap;html=1;aspect=fixed;fillColor=#333333;strokeColor=#FF0000;" parent="1" vertex="1">
          <mxGeometry x="210" y="605" width="20" height="20" as="geometry" />
        </mxCell>
        <mxCell id="kXGQncrLINFczimPs-n6-15" value="" style="endArrow=classic;html=1;exitX=0.5;exitY=1;exitDx=0;exitDy=0;entryX=0.5;entryY=0;entryDx=0;entryDy=0;strokeColor=#001933;" parent="1" source="kXGQncrLINFczimPs-n6-11" target="kXGQncrLINFczimPs-n6-14" edge="1">
          <mxGeometry width="50" height="50" relative="1" as="geometry">
            <mxPoint x="400" y="410" as="sourcePoint" />
            <mxPoint x="450" y="360" as="targetPoint" />
          </mxGeometry>
        </mxCell>
        <mxCell id="kXGQncrLINFczimPs-n6-16" value="Go to User Settings" style="rounded=0;whiteSpace=wrap;html=1;fillColor=#b0e3e6;strokeColor=#B0E3E6;" parent="1" vertex="1">
          <mxGeometry x="165" y="120" width="110" height="40" as="geometry" />
        </mxCell>
        <mxCell id="kXGQncrLINFczimPs-n6-17" value="" style="endArrow=classic;html=1;exitX=0.5;exitY=1;exitDx=0;exitDy=0;entryX=0.5;entryY=0;entryDx=0;entryDy=0;strokeColor=#001933;" parent="1" source="kXGQncrLINFczimPs-n6-1" target="kXGQncrLINFczimPs-n6-16" edge="1">
          <mxGeometry width="50" height="50" relative="1" as="geometry">
            <mxPoint x="350" y="270" as="sourcePoint" />
            <mxPoint x="400" y="220" as="targetPoint" />
          </mxGeometry>
        </mxCell>
        <mxCell id="kXGQncrLINFczimPs-n6-18" value="&lt;b&gt;&lt;font size=&quot;1&quot;&gt;&lt;u style=&quot;font-size: 17px&quot;&gt;Meeting Management&lt;/u&gt;&lt;/font&gt;&lt;/b&gt;" style="text;html=1;align=center;verticalAlign=middle;resizable=0;points=[];autosize=1;" parent="1" vertex="1">
          <mxGeometry x="475" y="20" width="190" height="20" as="geometry" />
        </mxCell>
        <mxCell id="kXGQncrLINFczimPs-n6-20" value="" style="line;strokeWidth=3;fillColor=none;align=left;verticalAlign=middle;spacingTop=-1;spacingLeft=3;spacingRight=3;rotatable=0;labelPosition=right;points=[];portConstraint=eastwest;" parent="1" vertex="1">
          <mxGeometry x="357.5" y="108" width="425" height="8" as="geometry" />
        </mxCell>
        <mxCell id="kXGQncrLINFczimPs-n6-21" value="" style="ellipse;whiteSpace=wrap;html=1;aspect=fixed;fillColor=#d5e8d4;strokeColor=#82b366;" parent="1" vertex="1">
          <mxGeometry x="555" y="50" width="30" height="30" as="geometry" />
        </mxCell>
        <mxCell id="kXGQncrLINFczimPs-n6-22" value="" style="endArrow=classic;html=1;strokeColor=#001933;exitX=0.5;exitY=1;exitDx=0;exitDy=0;" parent="1" source="kXGQncrLINFczimPs-n6-21" edge="1">
          <mxGeometry width="50" height="50" relative="1" as="geometry">
            <mxPoint x="350" y="340" as="sourcePoint" />
            <mxPoint x="570" y="110" as="targetPoint" />
          </mxGeometry>
        </mxCell>
        <mxCell id="kXGQncrLINFczimPs-n6-23" value="Go to Manage Meeting" style="rounded=0;whiteSpace=wrap;html=1;fillColor=#b0e3e6;strokeColor=#B0E3E6;" parent="1" vertex="1">
          <mxGeometry x="357.5" y="154" width="110" height="40" as="geometry" />
        </mxCell>
        <mxCell id="kXGQncrLINFczimPs-n6-24" value="" style="endArrow=classic;html=1;exitX=0.5;exitY=1;exitDx=0;exitDy=0;entryX=0.5;entryY=0;entryDx=0;entryDy=0;strokeColor=#001933;" parent="1" target="kXGQncrLINFczimPs-n6-23" edge="1">
          <mxGeometry width="50" height="50" relative="1" as="geometry">
            <mxPoint x="412.5" y="114" as="sourcePoint" />
            <mxPoint x="592.5" y="254" as="targetPoint" />
          </mxGeometry>
        </mxCell>
        <mxCell id="kXGQncrLINFczimPs-n6-25" value="Go to Manage Presenter" style="rounded=0;whiteSpace=wrap;html=1;fillColor=#b0e3e6;strokeColor=#B0E3E6;" parent="1" vertex="1">
          <mxGeometry x="515" y="154" width="110" height="40" as="geometry" />
        </mxCell>
        <mxCell id="kXGQncrLINFczimPs-n6-26" value="" style="endArrow=classic;html=1;exitX=0.5;exitY=1;exitDx=0;exitDy=0;entryX=0.5;entryY=0;entryDx=0;entryDy=0;strokeColor=#001933;" parent="1" target="kXGQncrLINFczimPs-n6-25" edge="1">
          <mxGeometry width="50" height="50" relative="1" as="geometry">
            <mxPoint x="570" y="114" as="sourcePoint" />
            <mxPoint x="750" y="254" as="targetPoint" />
          </mxGeometry>
        </mxCell>
        <mxCell id="kXGQncrLINFczimPs-n6-27" value="Go to Manage Notification" style="rounded=0;whiteSpace=wrap;html=1;fillColor=#b0e3e6;strokeColor=#B0E3E6;" parent="1" vertex="1">
          <mxGeometry x="672.5" y="154" width="110" height="40" as="geometry" />
        </mxCell>
        <mxCell id="kXGQncrLINFczimPs-n6-28" value="" style="endArrow=classic;html=1;exitX=0.5;exitY=1;exitDx=0;exitDy=0;entryX=0.5;entryY=0;entryDx=0;entryDy=0;strokeColor=#001933;" parent="1" target="kXGQncrLINFczimPs-n6-27" edge="1">
          <mxGeometry width="50" height="50" relative="1" as="geometry">
            <mxPoint x="727.5" y="114" as="sourcePoint" />
            <mxPoint x="907.5" y="254" as="targetPoint" />
          </mxGeometry>
        </mxCell>
      </root>
    </mxGraphModel>
  </diagram>
</mxfile>
